<?xml version="1.0" encoding="utf-8"?>
<!-- Generator: Adobe Illustrator 18.0.0, SVG Export Plug-In . SVG Version: 6.00 Build 0)  -->
<!DOCTYPE svg PUBLIC "-//W3C//DTD SVG 1.1//EN" "http://www.w3.org/Graphics/SVG/1.1/DTD/svg11.dtd">
<svg version="1.1" id="Layer_1" xmlns="http://www.w3.org/2000/svg" xmlns:xlink="http://www.w3.org/1999/xlink" x="0px" y="0px"
	 viewBox="315 0 506 506" enable-background="new 315 0 506 506" xml:space="preserve">
<g>
	<path fill="#B27214" d="M577.1,356.1V483c0,5.2-4.2,9.3-9.3,9.3c-5.2,0-9.3-4.2-9.3-9.3V356.1c0-5.2,4.1-9.3,9.3-9.3
		S577.1,350.9,577.1,356.1z"/>
	<path fill="#995C0D" d="M577.1,356.1v48.6l-9.3-9.3l-9.3,9.3v-48.6c0-5.2,4.1-9.3,9.3-9.3S577.1,350.9,577.1,356.1z"/>
	<path fill="#F7B239" d="M816.2,356.1l-25.4,25.4c-54.6,54.6-143,54.6-197.6,0l-25.3-25.4l-25.4,25.4c-54.6,54.6-143,54.6-197.6,0
		l-25.3-25.4l25.4-25.4c16.1-16.1,35.1-27.4,55.4-34c-26-30-41.7-69.3-41.7-112.1v-37.8h37.8c25.2,0,49.3,5.5,70.8,15.3
		c4.5-36.6,20.8-72.2,49-100.3l51.7-51.8l51.7,51.7c28.2,28.2,44.5,63.6,49,100.3c21.6-9.8,45.6-15.3,70.8-15.3h37.8v37.8
		c0,42.9-15.7,82.1-41.7,112.1c20.2,6.6,39.3,17.9,55.4,34L816.2,356.1z"/>
	<path fill="#E09B2D" d="M567.8,9.9v346.2l-25.4,25.4c-54.6,54.6-143,54.6-197.6,0l-25.3-25.4l25.4-25.4
		c16.1-16.1,35.1-27.4,55.4-34c-26-30-41.7-69.3-41.7-112.1v-37.8h37.8c25.2,0,49.3,5.5,70.8,15.3c4.5-36.6,20.8-72.2,49-100.3
		L567.8,9.9z"/>
	<path fill="#B27214" d="M567.8,164.3c0,0,0.7,2.9,1.6,8c0.9,5.1,2,12.4,3,21.2c0.5,4.4,1,9.1,1.4,14.1c0.4,5,0.8,10.3,1.1,15.8
		c0.2,2.7,0.3,5.5,0.4,8.3c0.1,2.8,0.2,5.7,0.3,8.5c0.2,5.7,0.2,11.6,0.2,17.4c0,5.8-0.1,11.7-0.2,17.4c0,1.4-0.1,2.9-0.1,4.3
		c-0.1,1.4-0.1,2.8-0.2,4.2c-0.1,2.8-0.2,5.6-0.4,8.3c-0.3,5.5-0.7,10.8-1.1,15.8c-0.4,5-0.9,9.8-1.4,14.1c-0.5,4.4-1,8.4-1.5,11.9
		c-0.5,3.6-1,6.7-1.5,9.2c-0.9,5.1-1.6,8-1.6,8s-0.7-2.9-1.6-8c-0.5-2.6-1-5.7-1.5-9.2c-0.5-3.6-1-7.6-1.5-11.9
		c-0.5-4.4-1-9.1-1.4-14.1c-0.4-5-0.8-10.3-1.1-15.8c-0.2-2.7-0.3-5.5-0.4-8.3c-0.1-1.4-0.1-2.8-0.2-4.2c0-1.4-0.1-2.9-0.1-4.3
		c-0.2-5.7-0.2-11.6-0.2-17.4c0-5.8,0.1-11.7,0.2-17.4c0.1-2.9,0.2-5.7,0.3-8.5c0.1-2.8,0.2-5.6,0.4-8.3c0.3-5.5,0.7-10.8,1.1-15.8
		c0.4-5,0.9-9.8,1.4-14.1c1-8.8,2.1-16,3-21.2C567.1,167.2,567.8,164.3,567.8,164.3z"/>
	<path fill="#B27214" d="M568.2,312.8c0,0,0.5-0.2,1.4-0.5c0.4-0.2,1-0.3,1.7-0.6c0.7-0.2,1.4-0.5,2.2-0.8c1.6-0.6,3.5-1.3,5.7-2.1
		c2.2-0.8,4.6-1.8,7.3-2.9c1.3-0.6,2.7-1.1,4.1-1.7c1.4-0.6,2.9-1.2,4.4-1.8c3-1.3,6.1-2.6,9.3-4c3.2-1.4,6.5-2.9,9.9-4.4
		c3.4-1.5,6.8-3,10.2-4.6c6.8-3.1,13.7-6.2,20.1-9.1c3.2-1.5,6.3-2.9,9.3-4.3c2.9-1.4,5.7-2.7,8.3-3.9c1.3-0.6,2.5-1.2,3.7-1.8
		c1.2-0.6,2.3-1.1,3.3-1.7c2.1-1.1,3.9-2,5.4-2.9c1.5-0.9,2.6-1.6,3.4-2.1c0.8-0.5,1.2-0.8,1.2-0.8s-0.2,0.5-0.5,1.4
		c-0.2,0.5-0.4,1-0.7,1.6c-0.3,0.6-0.7,1.4-1.1,2.1c-0.9,1.6-2.1,3.4-3.7,5.4c-1.5,2-3.4,4.1-5.5,6.3c-1.1,1.1-2.2,2.1-3.4,3.3
		c-1.2,1.1-2.5,2.2-3.8,3.3c-2.7,2.2-5.6,4.4-8.7,6.5c-3.1,2.1-6.4,4.1-9.9,6c-3.4,1.9-7,3.7-10.7,5.3c-3.7,1.6-7.4,3.1-11.1,4.4
		c-3.7,1.3-7.4,2.4-11.1,3.4c-3.7,0.9-7.2,1.7-10.7,2.2c-3.4,0.5-6.7,0.8-9.7,1c-3,0.1-5.8,0.1-8.3-0.1c-1.2-0.1-2.4-0.2-3.5-0.3
		c-1.1-0.1-2.1-0.3-2.9-0.4c-1.8-0.3-3.1-0.7-4-0.9C568.7,312.9,568.2,312.8,568.2,312.8z"/>
	<path fill="#B27214" d="M568.2,312.8c0,0-0.5,0.1-1.4,0.4c-0.9,0.3-2.2,0.6-4,0.9c-0.9,0.2-1.9,0.3-2.9,0.4
		c-1.1,0.1-2.2,0.3-3.5,0.3c-2.5,0.2-5.3,0.2-8.3,0.1c-3-0.2-6.3-0.5-9.7-1c-3.4-0.5-7-1.3-10.7-2.2c-3.6-0.9-7.4-2-11.1-3.4
		c-3.7-1.3-7.4-2.8-11.1-4.4c-3.6-1.7-7.2-3.4-10.7-5.3c-3.4-1.9-6.7-3.9-9.9-6c-3.1-2.1-6-4.3-8.7-6.5c-1.3-1.1-2.6-2.2-3.8-3.3
		c-1.2-1.1-2.4-2.2-3.4-3.3c-2.1-2.2-4-4.3-5.5-6.3c-1.5-2-2.8-3.8-3.7-5.4c-0.5-0.8-0.8-1.5-1.1-2.1c-0.3-0.6-0.5-1.2-0.7-1.6
		c-0.3-0.9-0.5-1.4-0.5-1.4s0.4,0.3,1.2,0.8c0.8,0.5,2,1.2,3.4,2.1c1.5,0.8,3.3,1.8,5.4,2.9c1,0.5,2.1,1.1,3.3,1.7
		c1.2,0.6,2.4,1.2,3.7,1.8c2.5,1.3,5.4,2.5,8.3,3.9c2.9,1.4,6,2.8,9.3,4.3c6.4,2.9,13.3,6,20.1,9.1c3.4,1.5,6.9,3.1,10.2,4.6
		c3.4,1.5,6.7,3,9.9,4.4c3.2,1.4,6.4,2.7,9.3,4c1.5,0.7,2.9,1.2,4.4,1.8c1.4,0.6,2.8,1.1,4.1,1.7c2.6,1.1,5.1,2,7.3,2.9
		c2.2,0.8,4.1,1.6,5.7,2.1c0.8,0.3,1.5,0.6,2.2,0.8c0.7,0.2,1.2,0.4,1.7,0.6C567.8,312.6,568.2,312.8,568.2,312.8z"/>
</g>
</svg>
