<?xml version="1.0" encoding="utf-8"?>
<!-- Generator: Adobe Illustrator 18.0.0, SVG Export Plug-In . SVG Version: 6.00 Build 0)  -->
<!DOCTYPE svg PUBLIC "-//W3C//DTD SVG 1.1//EN" "http://www.w3.org/Graphics/SVG/1.1/DTD/svg11.dtd">
<svg version="1.1" id="圖層_1" xmlns="http://www.w3.org/2000/svg" xmlns:xlink="http://www.w3.org/1999/xlink" x="0px" y="0px"
	 viewBox="0 0 200 200" enable-background="new 0 0 200 200" xml:space="preserve">
<rect fill="#C1285B" width="200" height="200"/>
<g>
	<path fill="#B27214" d="M103.4,138.4v46.4c0,1.9-1.5,3.4-3.4,3.4c-1.9,0-3.4-1.5-3.4-3.4v-46.4c0-1.9,1.5-3.4,3.4-3.4
		C101.9,135,103.4,136.5,103.4,138.4z"/>
	<path fill="#995C0D" d="M103.4,138.4v17.8l-3.4-3.4l-3.4,3.4v-17.8c0-1.9,1.5-3.4,3.4-3.4C101.9,135,103.4,136.5,103.4,138.4z"/>
	<path fill="#F7B239" d="M190.8,138.4l-9.3,9.3c-20,20-52.3,20-72.2,0l-9.3-9.3l-9.3,9.3c-20,20-52.3,20-72.2,0l-9.3-9.3l9.3-9.3
		c5.9-5.9,12.8-10,20.2-12.4c-9.5-11-15.3-25.3-15.3-41V61.9h13.8c9.2,0,18,2,25.9,5.6c1.7-13.4,7.6-26.4,17.9-36.7L100,11.8
		l18.9,18.9C129.2,41,135.2,54,136.8,67.4c7.9-3.6,16.7-5.6,25.9-5.6h13.8v13.8c0,15.7-5.7,30-15.3,41c7.4,2.4,14.4,6.5,20.2,12.4
		L190.8,138.4z"/>
	<path fill="#E09B2D" d="M100,11.8v126.5l-9.3,9.3c-20,20-52.3,20-72.2,0l-9.3-9.3l9.3-9.3c5.9-5.9,12.8-10,20.2-12.4
		c-9.5-11-15.3-25.3-15.3-41V61.9h13.8c9.2,0,18,2,25.9,5.6c1.7-13.4,7.6-26.4,17.9-36.7L100,11.8z"/>
	<path fill="#B27214" d="M100,68.3c0,0,0.3,1.1,0.6,2.9c0.3,1.9,0.7,4.5,1.1,7.7c0.2,1.6,0.4,3.3,0.5,5.2c0.1,1.8,0.3,3.8,0.4,5.8
		c0.1,1,0.1,2,0.1,3c0,1,0.1,2.1,0.1,3.1c0.1,2.1,0.1,4.2,0.1,6.4c0,2.1,0,4.3-0.1,6.4c0,0.5,0,1,0,1.6c0,0.5,0,1-0.1,1.6
		c0,1-0.1,2-0.1,3c-0.1,2-0.2,3.9-0.4,5.8c-0.2,1.8-0.3,3.6-0.5,5.2c-0.2,1.6-0.4,3.1-0.6,4.4c-0.2,1.3-0.4,2.4-0.5,3.4
		c-0.3,1.9-0.6,2.9-0.6,2.9s-0.3-1.1-0.6-2.9c-0.2-0.9-0.4-2.1-0.5-3.4c-0.2-1.3-0.4-2.8-0.6-4.4c-0.2-1.6-0.4-3.3-0.5-5.2
		c-0.1-1.8-0.3-3.8-0.4-5.8c-0.1-1-0.1-2-0.1-3c0-0.5,0-1-0.1-1.6c0-0.5,0-1,0-1.6c-0.1-2.1-0.1-4.2-0.1-6.4c0-2.1,0-4.3,0.1-6.4
		c0-1,0.1-2.1,0.1-3.1c0-1,0.1-2,0.1-3c0.1-2,0.2-3.9,0.4-5.8c0.2-1.8,0.3-3.6,0.5-5.2c0.4-3.2,0.8-5.9,1.1-7.7
		C99.7,69.3,100,68.3,100,68.3z"/>
	<path fill="#B27214" d="M100.2,122.5c0,0,0.2-0.1,0.5-0.2c0.2-0.1,0.4-0.1,0.6-0.2c0.2-0.1,0.5-0.2,0.8-0.3
		c0.6-0.2,1.3-0.5,2.1-0.8c0.8-0.3,1.7-0.7,2.7-1.1c0.5-0.2,1-0.4,1.5-0.6c0.5-0.2,1-0.4,1.6-0.7c1.1-0.5,2.2-1,3.4-1.5
		c1.2-0.5,2.4-1.1,3.6-1.6c1.2-0.5,2.5-1.1,3.7-1.7c2.5-1.1,5-2.3,7.3-3.3c1.2-0.5,2.3-1.1,3.4-1.6c1.1-0.5,2.1-1,3-1.4
		c0.5-0.2,0.9-0.4,1.3-0.7c0.4-0.2,0.8-0.4,1.2-0.6c0.8-0.4,1.4-0.7,2-1.1c0.5-0.3,1-0.6,1.2-0.8c0.3-0.2,0.4-0.3,0.4-0.3
		s-0.1,0.2-0.2,0.5c-0.1,0.2-0.1,0.4-0.3,0.6c-0.1,0.2-0.2,0.5-0.4,0.8c-0.3,0.6-0.8,1.2-1.3,2c-0.6,0.7-1.2,1.5-2,2.3
		c-0.4,0.4-0.8,0.8-1.3,1.2c-0.4,0.4-0.9,0.8-1.4,1.2c-1,0.8-2,1.6-3.2,2.4c-1.1,0.8-2.3,1.5-3.6,2.2c-1.3,0.7-2.6,1.3-3.9,1.9
		c-1.3,0.6-2.7,1.1-4,1.6c-1.4,0.5-2.7,0.9-4,1.2c-1.3,0.3-2.6,0.6-3.9,0.8c-1.3,0.2-2.5,0.3-3.6,0.4c-1.1,0.1-2.1,0-3,0
		c-0.5,0-0.9-0.1-1.3-0.1c-0.4,0-0.8-0.1-1.1-0.2c-0.7-0.1-1.1-0.2-1.5-0.3C100.4,122.6,100.2,122.5,100.2,122.5z"/>
	<path fill="#B27214" d="M100.2,122.5c0,0-0.2,0.1-0.5,0.2c-0.3,0.1-0.8,0.2-1.5,0.3c-0.3,0.1-0.7,0.1-1.1,0.2
		c-0.4,0-0.8,0.1-1.3,0.1c-0.9,0.1-1.9,0.1-3,0c-1.1-0.1-2.3-0.2-3.6-0.4c-1.3-0.2-2.6-0.5-3.9-0.8c-1.3-0.3-2.7-0.7-4-1.2
		c-1.4-0.5-2.7-1-4-1.6c-1.3-0.6-2.6-1.2-3.9-1.9c-1.3-0.7-2.5-1.4-3.6-2.2c-1.1-0.8-2.2-1.6-3.2-2.4c-0.5-0.4-1-0.8-1.4-1.2
		c-0.4-0.4-0.9-0.8-1.3-1.2c-0.8-0.8-1.5-1.6-2-2.3c-0.6-0.7-1-1.4-1.3-2c-0.2-0.3-0.3-0.6-0.4-0.8c-0.1-0.2-0.2-0.4-0.3-0.6
		c-0.1-0.3-0.2-0.5-0.2-0.5s0.2,0.1,0.4,0.3c0.3,0.2,0.7,0.4,1.2,0.8c0.5,0.3,1.2,0.7,2,1.1c0.4,0.2,0.8,0.4,1.2,0.6
		c0.4,0.2,0.9,0.4,1.3,0.7c0.9,0.5,2,0.9,3,1.4c1.1,0.5,2.2,1,3.4,1.6c2.3,1.1,4.8,2.2,7.3,3.3c1.3,0.6,2.5,1.1,3.7,1.7
		c1.2,0.5,2.5,1.1,3.6,1.6c1.2,0.5,2.3,1,3.4,1.5c0.5,0.2,1.1,0.5,1.6,0.7c0.5,0.2,1,0.4,1.5,0.6c1,0.4,1.9,0.7,2.7,1.1
		c0.8,0.3,1.5,0.6,2.1,0.8c0.3,0.1,0.6,0.2,0.8,0.3c0.2,0.1,0.4,0.1,0.6,0.2C100,122.5,100.2,122.5,100.2,122.5z"/>
</g>
</svg>
