<?xml version="1.0" encoding="utf-8"?>
<!-- Generator: Adobe Illustrator 18.0.0, SVG Export Plug-In . SVG Version: 6.00 Build 0)  -->
<!DOCTYPE svg PUBLIC "-//W3C//DTD SVG 1.1//EN" "http://www.w3.org/Graphics/SVG/1.1/DTD/svg11.dtd">
<svg version="1.1" id="Capa_1" xmlns="http://www.w3.org/2000/svg" xmlns:xlink="http://www.w3.org/1999/xlink" x="0px" y="0px"
	 viewBox="0 0 830 506" enable-background="new 0 0 830 506" xml:space="preserve">
<g>
	<path fill="#B2A1A1" d="M621.8,0.4c-4.4-1.2-9,0.8-10.9,4.9l-36.4,76.5c-30.5-48-83-77.2-140.9-77.2h-37.1
		c-57.4,0-111.1,30.1-141.4,78L219.2,5.4c-1.9-4.1-6.5-6.3-10.9-5c-4.4,1.2-7.2,5.5-6.7,10l27.8,245.5v27.3c0,1.2,0.2,2.3,0.7,3.5
		l27.1,67.7l-4.5,69.9c-0.2,2.8,0.9,5.6,3,7.5l78.9,72c1.7,1.6,3.9,2.4,6.3,2.4h148.5c2.3,0,4.5-0.9,6.3-2.4l78.9-72
		c2.1-1.9,3.2-4.6,3-7.5l-4.5-69.9l27.1-67.7c0.4-1.1,0.7-2.3,0.7-3.5v-22.7l27.8-250.2C629,5.8,626.2,1.6,621.8,0.4z M582.1,281.4
		l-27.2,68c-0.5,1.3-0.7,2.7-0.6,4l4.4,67.5l-73,66.5H344.3l-73-66.5l4.4-67.5c0.1-1.4-0.1-2.8-0.6-4l-27.2-68v-8l82.8,59.1
		c2.4,1.7,5.5,2.2,8.3,1.3l36.8-12.3l28.5,24.4c3.5,3,8.6,3,12.1,0l27.8-23.8l31.6,15.8c3,1.5,6.5,1.3,9.3-0.6l97-64.6L582.1,281.4
		L582.1,281.4z M583.2,249.6l-103.9,69.3L447,302.7c-3.3-1.7-7.4-1.2-10.2,1.3l-26.5,22.7L383.9,304c-1.7-1.5-3.9-2.2-6-2.2
		c-1,0-2,0.2-2.9,0.5l-37.3,12.4l-90.3-64.5l-21-185.1l19.4,41.9c1.5,3.3,4.8,5.3,8.3,5.4c3.5,0.4,6.9-2,8.4-5.2
		c24.7-51,77.2-83.9,133.8-83.9h37.1c56.9,0,108,31.8,133.3,82.9c1.6,3.2,4.8,5.2,8.3,5.2c0,0,0,0,0.1,0c3.6,0,6.8-2.1,8.3-5.3
		l20.4-42.8L583.2,249.6z"/>
	<path fill="#B2A1A1" d="M424.3,376h-27.9c-0.6,0-1.1,0-1.7,0.1l-60.2,10.9l3.3,18.3l59.4-10.8h26.2l59.4,10.8l3.3-18.3l-60.2-10.9
		C425.4,376.1,424.8,376,424.3,376z"/>
	<rect x="387.1" y="422.4" fill="#B2A1A1" width="46.4" height="18.6"/>
	<path fill="#B2A1A1" d="M524.4,218.4L440.8,237c-3.4,0.8-6.1,3.4-7,6.8c-0.9,3.4,0.3,7,3,9.3l32.5,27.9c1.7,1.5,3.9,2.2,6,2.2
		c2.2,0,4.5-0.8,6.2-2.4l51.1-46.4c3.1-2.8,3.9-7.4,2-11.1C532.7,219.5,528.5,217.5,524.4,218.4z M475.2,261.5L463,251.1l31.3-7
		L475.2,261.5z"/>
	<path fill="#B2A1A1" d="M379.9,237l-83.6-18.6c-4.1-0.9-8.3,1-10.2,4.8c-1.9,3.7-1.1,8.3,2,11.1l51.1,46.4c1.8,1.6,4,2.4,6.2,2.4
		c2.1,0,4.3-0.7,6-2.2l32.5-27.9c2.7-2.3,3.8-5.9,3-9.3C386,240.4,383.3,237.7,379.9,237z M345.5,261.5l-19.1-17.4l31.3,7
		L345.5,261.5z"/>
</g>
</svg>
