<?xml version="1.0" encoding="utf-8"?>
<!-- Generator: Adobe Illustrator 18.0.0, SVG Export Plug-In . SVG Version: 6.00 Build 0)  -->
<!DOCTYPE svg PUBLIC "-//W3C//DTD SVG 1.1//EN" "http://www.w3.org/Graphics/SVG/1.1/DTD/svg11.dtd">
<svg version="1.1" id="Layer_1" xmlns="http://www.w3.org/2000/svg" xmlns:xlink="http://www.w3.org/1999/xlink" x="0px" y="0px"
	 viewBox="0 0 830 506" enable-background="new 0 0 830 506" xml:space="preserve">
<path fill="#B2A1A1" d="M415,0c-0.2,0-0.4,0-0.6,0c-24.8,0-48,10.6-65.4,28c-17.4,17.5-26.9,41-26.8,65.7
	c0.3,50.6,41.9,91.8,92.8,91.8c0.2,0,0.4,0,0.6,0c24.8-0.2,48-9.9,65.4-27.4c17.4-17.5,26.9-41.4,26.8-66C507.4,41.6,465.9,0,415,0z
	 M469,146.3c-14.2,14.3-33.3,22.3-53.5,22.4c-42-0.1-76.1-33.3-76.4-74.7c-0.1-20.1,7.6-39.7,21.9-54c14.3-14.3,33.3-23.1,53.6-23.1
	c0.2,0,0.3,0,0.5,0c41.6,0,75.6,34.1,75.9,75.4C491,112.4,483.3,132,469,146.3z"/>
<path fill="#B2A1A1" d="M423.4,84.2l-8.2,0.1c0,0,0,0-0.1,0c-4.6,0-8.4-3.8-8.4-8.4c0-4.6,3.6-8.3,8.1-8.5c0.1,0,0.2,0,0.3,0
	c0,0,0,0,0.1,0c0.2,0,0.3-0.1,0.5-0.1l24.5-0.2c4.7,0,8.4-3.7,8.4-8.4c0-4.6-3.8-8.2-8.4-8.2c0,0,0,0-0.1,0l-16.6,0l0-6.7
	c0-4.6-3.8-10.1-8.4-10.1c0,0,0,0-0.1,0c-4.7,0-8.4,5.5-8.4,10.2l0,7.3c-9.8,3.5-16.9,13.3-16.8,24.4c0.1,13.9,11.4,25.6,25.3,25.6
	c0.1,0,0.1,0,0.2,0h8.2c0,0,0,0,0.1,0c2.2,0,4.3,0.8,5.9,2.3c1.6,1.6,2.5,3.7,2.5,5.9c0,4.7-3.7,8.4-8.4,8.5l-25.1,0.2
	c-4.7,0-8.4,3.8-8.4,8.5c0,4.6,3.8,8.4,8.4,8.4c0,0,0,0,0.1,0l8-0.1l0,6.9c0,4.6,3.8,10.1,8.4,10.1c0,0,0,0,0.1,0
	c4.7,0,8.4-5.4,8.4-10.1l0-6.8h0.2c13.9,0,25.2-11.6,25.1-25.5S437.7,84.1,423.4,84.2z"/>
<path fill="#B2A1A1" d="M188.8,177.1c-14.7,0-26.8,12.6-26.8,28s12,28,26.8,28c14.8,0,26.8-12.6,26.8-28S203.5,177.1,188.8,177.1z
	 M188.8,216.3c-5.4,0-9.9-5-9.9-11.2s4.4-11.2,9.9-11.2s9.9,5,9.9,11.2S194.2,216.3,188.8,216.3z"/>
<path fill="#B2A1A1" d="M365.8,439c-4.4-1.5-9.2,0.9-10.7,5.3l-13,39.1c-1.2,3.4-4.4,5.8-8,5.8h-25.3c-2.6,0-5-1.2-6.6-3.2
	c-1.6-2.1-2.2-4.7-1.5-7.2l11.6-46.5c1.1-4.5-1.6-9.1-6.1-10.2c-4.5-1.1-9.1,1.6-10.2,6.1l-11.6,46.5c-1.9,7.6-0.2,15.5,4.6,21.7
	c4.8,6.2,12.1,9.7,20,9.7h25.3c10.9,0,20.6-6.9,24-17.3l13-39.1C372.6,445.2,370.2,440.4,365.8,439z"/>
<path fill="#B2A1A1" d="M525.4,471.5L513.8,426c-1.2-4.5-5.7-7.2-10.3-6.1c-4.5,1.2-7.2,5.8-6.1,10.3l11.6,45.5
	c0.8,3.1-0.2,7.2-2.6,10.2c-1,1.2-3,3.3-5.6,3.3h-25.3c-2.3,0-6.4-3.9-8-8.8l-13-38.1c-1.5-4.4-6.3-6.7-10.7-5.2
	c-4.4,1.5-6.8,6.3-5.2,10.7l13,38c3.4,10.1,12.7,20.3,24,20.3h25.3c7.2,0,14.1-3.6,18.9-9.8C525.3,489.2,527.4,479.7,525.4,471.5z"
	/>
<path fill="#B2A1A1" d="M414.6,444.5c-8.1,0.4-16.5,0.4-24.5,0.1c-4.5-0.3-8.6,3.4-8.8,8.1c-0.2,4.7,3.4,8.6,8.1,8.8
	c3.9,0.2,7.9,0.3,11.9,0.3c4.8,0,9.5-0.1,14.2-0.3c4.7-0.2,8.2-4.2,8-8.8C423.2,447.9,419,444.1,414.6,444.5z"/>
<path fill="#B2A1A1" d="M450.2,217c-16.1-2.9-33.1-4.4-50.6-4.4c-20.8,0-40.4,1.8-58.5,5.3l-34-28.7c-10.1-8.6-24.8-7.9-34.2,1.4
	l-9.3,9.3c-4.8,4.8-7.4,11.1-7.4,17.9c0,0.4,0,0.8,0.1,1.2l5.8,38.7c-6.9,5.7-20.4,18.5-28.9,37.4H231c-14,0-26.8,11.4-26.8,25.3
	v36.8c0,8,4.6,15.6,11,20.3c0.3,0.2,1,0.4,1.3,0.6l40.7,22.5c4.9,6.7,10.7,13,17,18.8c1.6,1.5,3.7,2.2,5.7,2.2
	c2.3,0,4.6-0.9,6.3-2.8c3.1-3.5,2.9-8.8-0.6-11.9c-6-5.4-11.2-11.3-15.6-17.5c-0.7-1.1-1.7-1.9-2.8-2.5l-42.4-23.1
	c-1.9-1.6-3.8-4-3.8-6.5v-36.8c0-4.7,5.3-8.4,9.9-8.4h7.9c3.5,0,6.7-2.2,7.9-5.5c8.9-23.9,29-38,29.2-38.1c2.7-1.8,4-5,3.6-8.2
	l-6.4-42.9c0.1-2.1,1-4,2.5-5.4l9.3-9.3c3.1-3.1,8-3.3,11.4-0.5l35.2,29.7c1.9,2.8,5.3,4.3,8.8,3.5c18.1-3.9,38.1-5.9,59.4-5.9
	c16.5,0,32.5,1.4,47.6,4.1c4.6,0.8,9-2.2,9.8-6.8C457.9,222.2,454.8,217.8,450.2,217z"/>
<path fill="#B2A1A1" d="M617.4,295.2c-4.7,0-8.4,3.8-8.4,8.4v16.9c0,13.9-11.4,25.3-25.3,25.3H576c0.2-2.9,0.4-5.7,0.4-8.6
	c0-4.7-3.8-8.4-8.4-8.4s-8.4,3.8-8.4,8.4c0,27.6-11,51.1-32.7,69.7c-3.5,3-4,8.3-0.9,11.9c1.7,2,4,3,6.4,3c1.9,0,3.9-0.7,5.5-2
	c18.4-15.7,30.4-35.2,35.6-57h10.3c23.3,0,42.2-18.9,42.2-42.2v-16.9C625.8,298.9,622.1,295.2,617.4,295.2z"/>
<path fill="#B2A1A1" d="M424.9,244.6h-42.2c-4.7,0-8.4,3.8-8.4,8.4c0,4.7,3.8,8.4,8.4,8.4h42.2c4.7,0,8.4-3.8,8.4-8.4
	C433.4,248.3,429.6,244.6,424.9,244.6z"/>
<path fill="#B2A1A1" d="M537.1,188.6c-35,0-63.4,28.4-63.4,63.4s28.4,63.4,63.4,63.4s63.4-28.4,63.4-63.4
	C600.5,217,572,188.6,537.1,188.6z M537.1,298.5c-25.6,0-46.5-20.9-46.5-46.5s20.9-46.5,46.5-46.5c25.7,0,46.5,20.9,46.5,46.5
	C583.6,277.6,562.7,298.5,537.1,298.5z"/>
<path fill="#B2A1A1" d="M562.6,228.9c-4-2.4-9.2-1.2-11.6,2.8l-15.8,26l-11.8-10.9c-3.4-3.2-8.8-3-11.9,0.5c-3.2,3.4-3,8.8,0.5,11.9
	l19.4,17.9c1.6,1.5,3.6,2.2,5.7,2.2c0.4,0,0.8,0,1.2-0.1c2.5-0.3,4.7-1.8,6-4l21.1-34.8C567.9,236.5,566.6,231.4,562.6,228.9z"/>
<path fill="#B2A1A1" d="M609,42.2c-4.7,0-8.4,3.8-8.4,8.4v20.2c0,4.7,3.8,8.4,8.4,8.4s8.4-3.8,8.4-8.4V50.6
	C617.4,45.9,613.6,42.2,609,42.2z"/>
<path fill="#B2A1A1" d="M609,123.1c-4.7,0-8.4,3.8-8.4,8.4v20.2c0,4.7,3.8,8.4,8.4,8.4s8.4-3.8,8.4-8.4v-20.2
	C617.4,126.9,613.6,123.1,609,123.1z"/>
<path fill="#B2A1A1" d="M659.6,92.8h-20.2c-4.7,0-8.4,3.8-8.4,8.4c0,4.7,3.8,8.4,8.4,8.4h20.2c4.7,0,8.4-3.8,8.4-8.4
	C668,96.5,664.2,92.8,659.6,92.8z"/>
<path fill="#B2A1A1" d="M578.6,92.8h-20.2c-4.7,0-8.4,3.8-8.4,8.4c0,4.7,3.8,8.4,8.4,8.4h20.2c4.7,0,8.4-3.8,8.4-8.4
	C587,96.5,583.3,92.8,578.6,92.8z"/>
<path fill="#B2A1A1" d="M650.7,131l-14.3-14.3c-3.3-3.3-8.6-3.3-11.9,0s-3.3,8.6,0,11.9l14.3,14.3c1.6,1.6,3.8,2.5,6,2.5
	c2.2,0,4.3-0.8,6-2.5C654,139.6,654,134.3,650.7,131z"/>
<path fill="#B2A1A1" d="M593.5,73.8l-14.3-14.3c-3.3-3.3-8.6-3.3-11.9,0s-3.3,8.6,0,11.9l14.3,14.3c1.6,1.6,3.8,2.5,6,2.5
	c2.2,0,4.3-0.8,6-2.5C596.8,82.4,596.8,77.1,593.5,73.8z"/>
<path fill="#B2A1A1" d="M593.5,116.7c-3.3-3.3-8.6-3.3-11.9,0L567.2,131c-3.3,3.3-3.3,8.6,0,11.9c1.6,1.6,3.8,2.5,6,2.5
	s4.3-0.8,6-2.5l14.3-14.3C596.8,125.3,596.8,120,593.5,116.7z"/>
<path fill="#B2A1A1" d="M650.7,59.5c-3.3-3.3-8.6-3.3-11.9,0l-14.3,14.3c-3.3,3.3-3.3,8.6,0,11.9c1.6,1.6,3.8,2.5,6,2.5
	s4.3-0.8,6-2.5l14.3-14.3C654,68.1,654,62.8,650.7,59.5z"/>
<circle fill="#B2A1A1" cx="301.1" cy="299.4" r="12.6"/>
<circle fill="#B2A1A1" cx="372.8" cy="92.8" r="8.4"/>
<circle fill="#B2A1A1" cx="465.6" cy="92.8" r="8.4"/>
</svg>
