<?xml version="1.0" encoding="utf-8"?>
<!-- Generator: Adobe Illustrator 18.0.0, SVG Export Plug-In . SVG Version: 6.00 Build 0)  -->
<!DOCTYPE svg PUBLIC "-//W3C//DTD SVG 1.1//EN" "http://www.w3.org/Graphics/SVG/1.1/DTD/svg11.dtd">
<svg version="1.1" id="圖層_1" xmlns="http://www.w3.org/2000/svg" xmlns:xlink="http://www.w3.org/1999/xlink" x="0px" y="0px"
	 viewBox="0 0 200 200" enable-background="new 0 0 200 200" xml:space="preserve">
<rect fill="#C1285B" width="200" height="200"/>
<g>
	<path fill="#B27214" d="M104.1,133.1v39.3c0,1.6-1.3,2.9-2.9,2.9c-1.6,0-2.9-1.3-2.9-2.9v-39.3c0-1.6,1.3-2.9,2.9-2.9
		S104.1,131.5,104.1,133.1z"/>
	<path fill="#995C0D" d="M104.1,133.1v15.1l-2.9-2.9l-2.9,2.9v-15.1c0-1.6,1.3-2.9,2.9-2.9S104.1,131.5,104.1,133.1z"/>
	<path fill="#F7B239" d="M178.2,133.1l-7.9,7.9c-16.9,16.9-44.3,16.9-61.2,0l-7.8-7.9l-7.9,7.9c-16.9,16.9-44.3,16.9-61.2,0
		l-7.8-7.9l7.9-7.9c5-5,10.9-8.5,17.2-10.5c-8.1-9.3-12.9-21.5-12.9-34.7V68.2h11.7c7.8,0,15.3,1.7,21.9,4.7
		c1.4-11.3,6.5-22.4,15.2-31.1l16-16.1l16,16c8.7,8.7,13.8,19.7,15.2,31.1c6.7-3,14.1-4.7,21.9-4.7h11.7v11.7
		c0,13.3-4.9,25.4-12.9,34.7c6.3,2,12.2,5.5,17.2,10.5L178.2,133.1z"/>
	<path fill="#E09B2D" d="M101.2,25.8v107.3l-7.9,7.9c-16.9,16.9-44.3,16.9-61.2,0l-7.8-7.9l7.9-7.9c5-5,10.9-8.5,17.2-10.5
		c-8.1-9.3-12.9-21.5-12.9-34.7V68.2h11.7c7.8,0,15.3,1.7,21.9,4.7c1.4-11.3,6.5-22.4,15.2-31.1L101.2,25.8z"/>
</g>
</svg>
