<?xml version="1.0" encoding="utf-8"?>
<!-- Generator: Adobe Illustrator 18.0.0, SVG Export Plug-In . SVG Version: 6.00 Build 0)  -->
<!DOCTYPE svg PUBLIC "-//W3C//DTD SVG 1.1//EN" "http://www.w3.org/Graphics/SVG/1.1/DTD/svg11.dtd">
<svg version="1.1" id="Layer_1" xmlns="http://www.w3.org/2000/svg" xmlns:xlink="http://www.w3.org/1999/xlink" x="0px" y="0px"
	 viewBox="153.6 -14 520 520" enable-background="new 153.6 -14 520 520" xml:space="preserve">
<path fill="#B27214" d="M424.5,352.9v129.3c0,5.3-4.3,9.5-9.5,9.5c-5.3,0-9.5-4.3-9.5-9.5V352.9c0-5.3,4.2-9.5,9.5-9.5
	C420.3,343.4,424.5,347.6,424.5,352.9z"/>
<path fill="#995C0D" d="M424.5,352.9v49.5l-9.5-9.5l-9.5,9.5v-49.5c0-5.3,4.2-9.5,9.5-9.5C420.3,343.4,424.5,347.6,424.5,352.9z"/>
<path fill="#F7B239" d="M668,352.9l-25.9,25.9c-55.6,55.6-145.7,55.6-201.3,0L415,352.9l-25.9,25.9c-55.6,55.6-145.7,55.6-201.3,0
	L162,352.9l25.9-25.9c16.4-16.4,35.8-27.9,56.4-34.6c-26.5-30.6-42.5-70.6-42.5-114.2v-38.5h38.5c25.7,0,50.2,5.6,72.1,15.6
	c4.6-37.3,21.2-73.5,49.9-102.2L415,0.3l52.7,52.7c28.7,28.7,45.3,64.8,49.9,102.2c22-10,46.4-15.6,72.1-15.6h38.5v38.5
	c0,43.7-16,83.6-42.5,114.2c20.6,6.7,40,18.2,56.4,34.6L668,352.9z"/>
<path fill="#E09B2D" d="M415,0.3v352.6l-25.9,25.9c-55.6,55.6-145.7,55.6-201.3,0L162,352.9l25.9-25.9
	c16.4-16.4,35.8-27.9,56.4-34.6c-26.5-30.6-42.5-70.6-42.5-114.2v-38.5h38.5c25.7,0,50.2,5.6,72.1,15.6
	c4.6-37.3,21.2-73.5,49.9-102.2L415,0.3z"/>
</svg>
