<svg xmlns="http://www.w3.org/2000/svg" width="777" height="480" style=""><g class="currentLayer" style=""><rect fill="none" stroke="#222222" stroke-width="7" stroke-linejoin="round" fill-rule="nonzero" x="264" y="110" width="47" height="37"/><path fill="none" stroke="#222222" stroke-width="7" stroke-linejoin="round" stroke-linecap="butt" fill-rule="nonzero" d="M264.80973857096876,127.7073171826646L308.7121786165451,127.7073171826646"/><path fill="none" stroke="#222222" stroke-width="7" stroke-linejoin="round" stroke-linecap="butt" fill-rule="nonzero" d="M288.2243732625101,102.82926782350467 L288.2243732625101,108.1951216068529 "/><path fill="none" stroke="#222222" stroke-width="7" stroke-linejoin="round" stroke-linecap="butt" fill-rule="nonzero" d="M287.8369988018129,146.73170798105656 L288.3248036912082,198.25251159536924 "/><path fill="none" stroke="#222222" stroke-width="7" stroke-linejoin="round" stroke-linecap="butt" fill-rule="nonzero" d="M241.88290733632556,176.00000123138025 L241.88290733632556,195.51219680719194 "/><path fill="none" stroke="#222222" stroke-width="7" stroke-linejoin="round" stroke-linecap="butt" fill-rule="nonzero" d="M229.68778557118884,176.00000123138025 L229.68778557118884,195.51219680719194 "/><path fill="none" stroke="#222222" stroke-width="7" stroke-linejoin="round" stroke-linecap="butt" fill-rule="nonzero" d="M254.5658354216527,176.00000123138025 L254.5658354216527,195.51219680719194 "/><path fill="none" stroke="#222222" stroke-width="7" stroke-linejoin="round" stroke-linecap="butt" fill-rule="nonzero" d="M262.8536647819892,160.90243989418013 C271.2083310591975,160.90243989418013 277.97561588519966,167.9047156454466 277.97561588519966,176.54949933479293 C277.97561588519966,185.19428302413925 271.2083310591975,192.19655877540572 262.8536647819892,192.19655877540572 "/><path fill="none" stroke="#222222" stroke-width="7" stroke-linejoin="round" stroke-linecap="butt" fill-rule="nonzero" d="M298.9628514910489,160.90240954014143 C307.31751776825723,160.90240954014143 314.0848025942594,168.03733653568585 314.0848025942594,176.84588717075667 C314.0848025942594,185.65443780582748 307.31751776825723,192.7893648013719 298.9628514910489,192.7893648013719 " transform="rotate(179.7736358642578 306.5238342285156,176.84588623046878) "/><path fill="none" stroke="#222222" stroke-width="7" stroke-linejoin="round" stroke-linecap="butt" fill-rule="nonzero" d="M225.89592004768372,106.70079907750676 L225.63902004768372,134.08708123536894 C225.53983004768372,136.69981983118367 226.70219004768373,138.67073826077768 229.54146004768373,138.74344337429594 L238.8097600476837,138.74344337429594 C240.94797004768373,138.71757499036144 242.6861800476837,140.38867895621607 242.22439004768373,141.84767065872262 L242.22439004768373,163.05995760788034 C242.20000004768372,165.15531791886158 242.77561004768373,166.40218675187657 245.15122004768372,166.16419549845048 L259.2975600476837,166.16419549845048 "/><path fill="none" stroke="#222222" stroke-width="7" stroke-linejoin="round" stroke-linecap="butt" fill-rule="nonzero" d="M384.8,105.19999995231629 L385.20000000000005,190.79999995231628 "/><path fill="none" stroke="#222222" stroke-width="7" stroke-linejoin="round" stroke-linecap="butt" fill-rule="nonzero" d="M358.4,190.79999995231628 L451.4,190.79999995231628 "/><path fill="none" stroke="#222222" stroke-width="7" stroke-linejoin="round" stroke-linecap="butt" fill-rule="nonzero" d="M387.6,132.79999995231628 L443,132.79999995231628 "/><path fill="none" stroke="#222222" stroke-width="7" stroke-linejoin="round" stroke-linecap="butt" fill-rule="nonzero" d="M492.7056704718509,109.42009569223961 L569.2713299877581,109.01605527263061 "/><path fill="none" stroke="#222222" stroke-width="7" stroke-linejoin="round" stroke-linecap="butt" fill-rule="nonzero" d="M497.0253354914231,123.96555019434533 L564.1792305227756,123.56150977473635 "/><path fill="none" stroke="#222222" stroke-width="7" stroke-linejoin="round" stroke-linecap="butt" fill-rule="nonzero" d="M493.10970794743685,139.7231257062777 L569.6753674633441,139.31908528666872 "/><path fill="none" stroke="#222222" stroke-width="7" stroke-linejoin="round" stroke-linecap="butt" fill-rule="nonzero" d="M513.3117284869385,109.21807631347656 C513.3117284869385,109.21807631347656 513.1097084869384,144.88459631347655 513.1097084869384,144.88459631347655 C513.1097084869384,144.88459631347655 505.41671848693846,155.21603631347654 502.29351848693847,157.17228631347655 C499.17031848693847,159.12853631347656 495.12990848693846,158.6964063134766 491.2915284869385,158.6964063134766 "/><rect fill="none" stroke="#222222" stroke-width="7" stroke-linejoin="round" fill-rule="nonzero" x="510.0915222167969" y="152.058837890625" width="53.79084777832031" height="44"/><path fill="none" stroke="#222222" stroke-width="7" stroke-linejoin="round" stroke-linecap="butt" fill-rule="nonzero" d="M508.2612269290087,164.77363317867383 L562.1055540404678,164.77363317867383 "/><path fill="none" stroke="#222222" stroke-width="7" stroke-linejoin="round" stroke-linecap="butt" fill-rule="nonzero" d="M508.2612266969844,179.28343766309257 L563.2107213484237,179.08141745328805 "/></g></svg>
