<?xml version="1.0" encoding="utf-8"?>
<!-- Generator: Adobe Illustrator 18.0.0, SVG Export Plug-In . SVG Version: 6.00 Build 0)  -->
<!DOCTYPE svg PUBLIC "-//W3C//DTD SVG 1.1//EN" "http://www.w3.org/Graphics/SVG/1.1/DTD/svg11.dtd">
<svg version="1.1" id="圖層_1" xmlns="http://www.w3.org/2000/svg" xmlns:xlink="http://www.w3.org/1999/xlink" x="0px" y="0px"
	 viewBox="0 0 830 506" enable-background="new 0 0 830 506" xml:space="preserve">
<path fill="#B2A1A1" d="M668.4,10.2H155.9c-5.1,0-9.3,4.2-9.3,9.3v149.1c0,5.1,4.2,9.3,9.3,9.3h512.5c5.1,0,9.3-4.2,9.3-9.3V19.5
	C677.7,14.4,673.6,10.2,668.4,10.2z M165.2,28.8H510v130.4H165.2V28.8z M659.1,159.3H528.6V28.8h130.4V159.3z"/>
<path fill="#B2A1A1" d="M305,469.9h163.1c5.1,0,9.3-4.2,9.3-9.3s-4.2-9.3-9.3-9.3H305c-5.1,0-9.3,4.2-9.3,9.3S299.9,469.9,305,469.9
	z"/>
<path fill="#B2A1A1" d="M631.1,401.6H305c-5.1,0-9.3,4.2-9.3,9.3s4.2,9.3,9.3,9.3h326.1c5.1,0,9.3-4.2,9.3-9.3
	S636.3,401.6,631.1,401.6z"/>
<path fill="#B2A1A1" d="M305,320.8h163.1c5.1,0,9.3-4.2,9.3-9.3c0-5.1-4.2-9.3-9.3-9.3H305c-5.1,0-9.3,4.2-9.3,9.3
	C295.7,316.6,299.9,320.8,305,320.8z"/>
<path fill="#B2A1A1" d="M305,271.1h326.1c5.1,0,9.3-4.2,9.3-9.3s-4.2-9.3-9.3-9.3H305c-5.1,0-9.3,4.2-9.3,9.3S299.9,271.1,305,271.1
	z"/>
<path fill="#B2A1A1" d="M668.4,202.8H155.9c-5.1,0-9.3,4.2-9.3,9.3v149.1c0,5.1,4.2,9.3,9.3,9.3h512.5c5.1,0,9.3-4.2,9.3-9.3V212.1
	C677.7,207,673.6,202.8,668.4,202.8z M659.1,351.9H165.2V221.4h493.8V351.9z"/>
<path fill="#B2A1A1" d="M558.4,112.5c7.2,7.2,16.7,11.1,26.9,11.1c7,0,13.7-1.9,19.5-5.4l19.7,19.7c1.8,1.8,4.2,2.7,6.6,2.7
	c2.4,0,4.8-0.9,6.6-2.7c3.6-3.6,3.6-9.5,0-13.2L618,105.1c3.5-5.8,5.4-12.5,5.4-19.5c0-10.2-4-19.7-11.1-26.9
	c-7.2-7.2-16.7-11.1-26.9-11.1c-10.2,0-19.7,4-26.9,11.1C543.6,73.5,543.6,97.6,558.4,112.5L558.4,112.5z M571.6,71.8
	c3.7-3.7,8.5-5.7,13.7-5.7c5.2,0,10.1,2,13.7,5.7c3.7,3.7,5.7,8.5,5.7,13.7c0,5.2-2,10.1-5.7,13.7c-3.7,3.7-8.5,5.7-13.7,5.7
	c-5.2,0-10.1-2-13.7-5.7C564,91.7,564,79.4,571.6,71.8z"/>
<path fill="#B2A1A1" d="M264.7,389.1h-74.5c-5.1,0-9.3,4.2-9.3,9.3V473c0,5.1,4.2,9.3,9.3,9.3h74.5c5.1,0,9.3-4.2,9.3-9.3v-74.5
	C274.1,393.3,269.9,389.1,264.7,389.1z M255.4,463.7h-55.9v-55.9h55.9V463.7z"/>
<g>
	<g>
		<path fill="#B2A1A1" d="M263.5,276.7l-56.8-38.4c-3.7-2.5-8.4-2.8-12.4-0.7c-3.9,2.1-6.4,6.2-6.4,10.6V325c0,4.5,2.4,8.5,6.4,10.6
			c1.8,0.9,3.7,1.4,5.6,1.4c2.4,0,4.7-0.7,6.7-2.1l56.8-38.4c3.3-2.2,5.3-6,5.3-10S266.8,278.9,263.5,276.7z M246.3,291.2
			l-35.7,23.9c-1.1,0.8-2.5,0.8-3.7,0.2c-1.2-0.6-1.9-1.8-1.9-3.1v-47.8c0-1.3,0.7-2.5,1.9-3.1c0.5-0.3,1.1-0.4,1.7-0.4
			c0.7,0,1.4,0.2,2,0.6l35.7,23.9c1,0.7,1.6,1.7,1.6,3C247.9,289.4,247.4,290.5,246.3,291.2z"/>
	</g>
</g>
<g>
	<rect x="220.9" y="56.3" fill="none" stroke="#B2A1A1" stroke-width="8" stroke-miterlimit="10" width="46" height="36.2"/>
	<path fill="none" stroke="#B2A1A1" stroke-width="8" stroke-miterlimit="10" d="M221.7,73.7h43"/>
	<path fill="none" stroke="#B2A1A1" stroke-width="8" stroke-miterlimit="10" d="M244.6,47.3v5.3"/>
	<path fill="none" stroke="#B2A1A1" stroke-width="8" stroke-miterlimit="10" d="M244.3,90.3l0.5,50.5"/>
	<path fill="none" stroke="#B2A1A1" stroke-width="8" stroke-miterlimit="10" d="M199.2,119v19.1"/>
	<path fill="none" stroke="#B2A1A1" stroke-width="8" stroke-miterlimit="10" d="M187.3,119v19.1"/>
	<path fill="none" stroke="#B2A1A1" stroke-width="8" stroke-miterlimit="10" d="M211.7,119v19.1"/>
	<path fill="none" stroke="#B2A1A1" stroke-width="8" stroke-miterlimit="10" d="M219.8,104.2c8.2,0,14.8,6.9,14.8,15.3
		s-6.6,15.3-14.8,15.3"/>
	<path fill="none" stroke="#B2A1A1" stroke-width="8" stroke-miterlimit="10" d="M270,135.4c-8.2,0-14.8-6.9-14.9-15.6
		c0-8.6,6.6-15.6,14.8-15.7"/>
	<path fill="none" stroke="#B2A1A1" stroke-width="8" stroke-miterlimit="10" d="M185.5,51.1l-0.3,26.8c-0.1,2.6,1,4.5,3.8,4.6h9.1
		c2.1,0,3.8,1.6,3.3,3v20.8c0,2.1,0.5,3.3,2.9,3h13.9"/>
	<path fill="none" stroke="#B2A1A1" stroke-width="8" stroke-miterlimit="10" d="M322.3,49.6l0.4,83.9"/>
	<path fill="none" stroke="#B2A1A1" stroke-width="8" stroke-miterlimit="10" d="M296.4,133.5h91.1"/>
	<path fill="none" stroke="#B2A1A1" stroke-width="8" stroke-miterlimit="10" d="M325,76.7h54.3"/>
	<path fill="none" stroke="#B2A1A1" stroke-width="8" stroke-miterlimit="10" d="M414.5,53.8l75-0.4"/>
	<path fill="none" stroke="#B2A1A1" stroke-width="8" stroke-miterlimit="10" d="M418.7,68l65.8-0.4"/>
	<path fill="none" stroke="#B2A1A1" stroke-width="8" stroke-miterlimit="10" d="M414.9,83.4l75-0.4"/>
	<path fill="none" stroke="#B2A1A1" stroke-width="8" stroke-miterlimit="10" d="M434.7,53.6l-0.2,34.9c0,0-7.5,10.1-10.6,12
		c-3.1,1.9-7,1.5-10.8,1.5"/>
	<rect x="426.6" y="99.2" fill="none" stroke="#B2A1A1" stroke-width="8" stroke-miterlimit="10" width="57.6" height="39.4"/>
	<path fill="none" stroke="#B2A1A1" stroke-width="8" stroke-miterlimit="10" d="M424.7,111.5h57.6"/>
	<path fill="none" stroke="#B2A1A1" stroke-width="8" stroke-miterlimit="10" d="M424.7,124.5l58.8-0.2"/>
</g>
</svg>
