<?xml version="1.0" encoding="utf-8"?>
<!-- Generator: Adobe Illustrator 18.0.0, SVG Export Plug-In . SVG Version: 6.00 Build 0)  -->
<!DOCTYPE svg PUBLIC "-//W3C//DTD SVG 1.1//EN" "http://www.w3.org/Graphics/SVG/1.1/DTD/svg11.dtd">
<svg version="1.1" id="Capa_1" xmlns="http://www.w3.org/2000/svg" xmlns:xlink="http://www.w3.org/1999/xlink" x="0px" y="0px"
	 viewBox="0 0 830 506" enable-background="new 0 0 830 506" xml:space="preserve">
<path fill="#B2A1A1" d="M368.5,204.8h-59.2v-42c0-19.5-5.8-33.8-17.3-42.2c-18.1-13.3-42.7-5.8-43.8-5.4c-4,1.3-6.7,4.9-6.7,9.1V174
	c0,15.4-7.4,28.4-21.9,38.9c-9.5,6.8-19.1,10.4-22.6,11.5c-2.5-3.9-6.9-6.4-11.9-6.4H134c-7.9,0-14.2,6.4-14.2,14.2v139.5
	c0,7.9,6.4,14.2,14.2,14.2h51.2c3.5,0,6.7-1.3,9.2-3.3c7.5,6.8,17.5,10.8,28.2,10.8h121.9c12.1,0,22.8-2.9,31-8.4
	c10.4-7,16.9-18.3,18.7-32.5l16-101.8c0.2-1.5,0.3-2.9,0.3-4.4C409.6,223.5,390.7,204.8,368.5,204.8z M180.3,367h-41.5V237.2h41.5
	V367z M391.4,247.9l-16,101.9c0,0.1,0,0.2-0.1,0.3c-0.7,6-2.9,24.3-30.7,24.3H222.6c-11.1,0-20.7-7.9-22.7-18.8
	c-0.1-0.5-0.2-1-0.4-1.4V243.6c0.5-0.1,1-0.2,1.5-0.3c0.6-0.2,14.9-4.2,29.3-14.5c19.9-14.1,30.3-33,30.3-54.8v-42
	c5.7-0.6,14.1-0.6,20.1,3.9c6.3,4.6,9.5,13.7,9.5,26.8v51.6c0,5.2,4.3,9.5,9.5,9.5h68.7c12,0,22.5,10.7,23,23.4
	C391.4,247.3,391.4,247.5,391.4,247.9z"/>
<path fill="#B2A1A1" d="M274.8,87.4c5.2,0,9.5-4.3,9.5-9.5V16.3c0-5.2-4.3-9.5-9.5-9.5c-5.2,0-9.5,4.3-9.5,9.5v61.6
	C265.2,83.1,269.5,87.4,274.8,87.4z"/>
<path fill="#B2A1A1" d="M331.6,154.7c0,5.2,4.3,9.5,9.5,9.5h61.6c5.2,0,9.5-4.3,9.5-9.5s-4.3-9.5-9.5-9.5h-61.6
	C335.9,145.2,331.6,149.5,331.6,154.7z"/>
<path fill="#B2A1A1" d="M146.7,164.3h61.6c5.2,0,9.5-4.3,9.5-9.5s-4.3-9.5-9.5-9.5h-61.6c-5.2,0-9.5,4.3-9.5,9.5
	S141.5,164.3,146.7,164.3z"/>
<path fill="#B2A1A1" d="M173,61.1c2.5,0,5-1,6.8-2.8c1.7-1.7,2.8-4.2,2.8-6.8c0-2.5-1-5-2.8-6.8c-1.7-1.7-4.2-2.8-6.8-2.8
	s-5,1-6.8,2.8c-1.7,1.7-2.8,4.2-2.8,6.8c0,2.5,1,5,2.8,6.8C168,60.2,170.5,61.1,173,61.1z"/>
<path fill="#B2A1A1" d="M194.8,82.9c2.5,0,4.8-1,6.8-2.8c3.7-3.7,3.7-9.8,0-13.5c-3.7-3.7-9.8-3.7-13.5,0c-3.7,3.7-3.7,9.8,0,13.5
	C189.8,82,192.3,82.9,194.8,82.9z"/>
<path fill="#B2A1A1" d="M216.5,104.8c2.5,0,5-1,6.8-2.8c1.7-1.7,2.8-4.2,2.8-6.8s-1-5-2.8-6.8c-1.7-1.7-4.2-2.8-6.8-2.8
	s-5,1-6.8,2.8c-1.7,1.7-2.8,4.2-2.8,6.8s1,5,2.8,6.8C211.5,103.7,214,104.8,216.5,104.8z"/>
<path fill="#B2A1A1" d="M370,65.6c2.5,0,5-1,6.8-2.8c1.7-1.7,2.8-4.2,2.8-6.8s-1-5-2.8-6.8c-1.7-1.7-4.2-2.8-6.8-2.8s-5,1-6.8,2.8
	c-1.7,1.7-2.8,4.2-2.8,6.8s1,5,2.8,6.8C365,64.6,367.5,65.6,370,65.6z"/>
<path fill="#B2A1A1" d="M348.2,87.4c2.5,0,4.8-1,6.8-2.8c3.7-3.7,3.7-9.8,0-13.5c-3.7-3.7-9.8-3.7-13.5,0c-3.7,3.7-3.7,9.8,0,13.5
	C343.3,86.5,345.8,87.4,348.2,87.4z"/>
<path fill="#B2A1A1" d="M326.5,109.2c2.5,0,5-1,6.8-2.8c1.7-1.7,2.8-4.2,2.8-6.8s-1-5-2.8-6.8c-1.7-1.7-4.2-2.8-6.8-2.8
	s-5,1-6.8,2.8c-1.7,1.7-2.8,4.2-2.8,6.8s1,5,2.8,6.8C321.5,108.2,323.9,109.2,326.5,109.2z"/>
<path fill="#B2A1A1" d="M718.7,370.6c0-1.4-0.1-2.9-0.3-4.4l-16-101.8c-1.7-14.2-8.3-25.5-18.7-32.5c-8.2-5.5-18.9-8.4-31-8.4H530.7
	c-10.7,0-20.7,4.1-28.2,10.8c-2.5-2.1-5.7-3.3-9.2-3.3h-51.2c-7.8,0-14.2,6.4-14.2,14.2v139.5c0,7.8,6.4,14.2,14.2,14.2h51.2
	c5,0,9.4-2.5,11.9-6.4c3.4,1.1,13.1,4.7,22.6,11.5c14.5,10.5,21.9,23.5,21.9,38.9v49.8c0,4.1,2.7,7.8,6.7,9.1
	c1,0.4,25.7,7.9,43.8-5.4c11.5-8.4,17.3-22.6,17.3-42.2v-42h59.2C698.9,412.2,717.8,393.5,718.7,370.6z M488.5,379.8h-41.5V250h41.5
	V379.8z M699.6,369.8c-0.5,12.7-11,23.4-23,23.4h-68.7c-5.2,0-9.5,4.3-9.5,9.5v51.6c0,13.1-3.3,22.2-9.5,26.8
	c-6,4.4-14.4,4.5-20.1,3.9v-42c0-21.8-10.5-40.8-30.3-54.8c-14.4-10.2-28.7-14.3-29.3-14.5c-0.5-0.2-1-0.2-1.5-0.3V262.8
	c0.2-0.5,0.3-1,0.4-1.4c2.1-10.9,11.6-18.8,22.7-18.8h121.9c27.8,0,30,18.3,30.7,24.3c0.1,0.1,0.1,0.2,0.1,0.3l16,101.9
	C699.6,369.5,699.6,369.7,699.6,369.8z"/>
</svg>
